<svg width="512" height="512" viewBox="0 0 512 512" fill="none" xmlns="http://www.w3.org/2000/svg">
  <!-- Pink gradient background -->
  <defs>
    <linearGradient id="bg" x1="0" y1="0" x2="512" y2="512" gradientUnits="userSpaceOnUse">
      <stop offset="0%" stop-color="#f9a8c9"/>
      <stop offset="100%" stop-color="#f6a192"/>
    </linearGradient>
  </defs>
  <rect width="512" height="512" rx="115" fill="url(#bg)"/>

  <!-- IMMU flower icon, white, centered -->
  <g transform="translate(145, 145) scale(2.97)">
    <path fill="white" d="M0,50.71c0-1.26.35-2.51,1.05-3.64l4.33-7.03c.78-1.26.78-2.83,0-4.09l-4.34-7.03c-1.34-2.16-1.4-4.78-.16-7.01,1.24-2.22,3.5-3.55,6.04-3.55h6.75v5.82h-6.75c-.56,0-.84.35-.96.56-.12.21-.27.64.03,1.11l4.34,7.04c1.94,3.14,1.94,7.05,0,10.2l-4.34,7.03c-.3.48-.15.91-.03,1.12.12.21.4.57.96.57h11.7c3.07,0,5.56,2.49,5.56,5.56v.26H6.93c-2.55,0-4.81-1.33-6.05-3.55-.59-1.06-.89-2.22-.89-3.37"/>
    <path fill="white" d="M76.01,25.29c0,1.26-.35,2.51-1.05,3.64l-4.33,7.03c-.78,1.26-.78,2.83,0,4.09l4.34,7.03c1.34,2.16,1.4,4.78.16,7.01-1.24,2.22-3.5,3.55-6.04,3.55h-6.75v-5.82h6.75c.56,0,.84-.35.96-.56.12-.21.27-.64-.03-1.11l-4.34-7.04c-1.94-3.14-1.94-7.05,0-10.2l4.34-7.03c.3-.48.15-.91.03-1.12-.12-.21-.4-.57-.96-.57h-11.43c-3.21,0-5.82-2.61-5.82-5.82h17.25c2.55,0,4.81,1.33,6.05,3.55.59,1.06.89,2.22.89,3.37"/>
    <path fill="white" d="M50.71,76.01c-1.26,0-2.51-.35-3.64-1.05l-7.03-4.33c-1.26-.78-2.83-.78-4.09,0l-7.03,4.34c-2.16,1.34-4.78,1.4-7.01.16-2.22-1.24-3.55-3.5-3.55-6.04v-6.75h5.82v6.75c0,.56.35.84.56.96.21.12.64.27,1.11-.03l7.04-4.34c3.14-1.94,7.05-1.94,10.2,0l7.03,4.34c.48.3.91.15,1.12.03.21-.12.57-.4.57-.96v-11.43c0-3.21,2.61-5.82,5.82-5.82v17.25c0,2.55-1.33,4.81-3.55,6.05-1.06.59-2.22.89-3.37.89"/>
    <path fill="white" d="M25.3,0c1.26,0,2.51.35,3.64,1.05l7.03,4.33c1.26.78,2.83.78,4.09,0l7.03-4.34c2.16-1.34,4.78-1.4,7.01-.16,2.22,1.24,3.55,3.5,3.55,6.04v6.75h-5.82v-6.75c0-.56-.35-.84-.56-.96-.21-.12-.64-.27-1.11.03l-7.04,4.34c-3.14,1.94-7.05,1.94-10.2,0l-7.03-4.34c-.48-.3-.91-.15-1.12-.03-.21.12-.57.4-.57.96v11.43c0,3.21-2.61,5.82-5.82,5.82V6.93c0-2.55,1.33-4.81,3.55-6.05,1.06-.59,2.22-.89,3.37-.89"/>
  </g>
</svg>
